<svg width="192" height="192" viewBox="0 0 192 192" fill="none" xmlns="http://www.w3.org/2000/svg">
<circle cx="96" cy="61" r="48" fill="#0085FF"/>
<path d="M79.5 120C68.4421 113.77 79.5 106 63 96H129C112 106 123.12 113.881 112 120C100.88 126.119 90.5579 126.23 79.5 120Z" fill="#0085FF"/>
<path d="M117 131V122.5C117 122.5 108 129.5 96 129.5C84 129.5 75 122.5 75 122.5V131C75 131 84.5 137.5 96 137.5C107.5 137.5 117 131 117 131Z" fill="#0085FF"/>
<path d="M124.159 57.9997C124.159 55.647 123.097 53.4422 121.288 51.9747C121.366 51.599 121.405 51.2381 121.405 50.8829C121.405 47.9523 119.238 45.5184 116.423 45.0992C116.488 44.7626 116.518 44.4323 116.518 44.1034C116.518 40.9834 114.06 38.4342 110.979 38.2723C110.929 38.264 110.877 38.2569 110.824 38.2569C110.799 38.2569 110.774 38.2601 110.748 38.2608C110.722 38.2601 110.697 38.2569 110.671 38.2569C110.378 38.2569 110.083 38.2832 109.771 38.3376C109.229 35.4672 106.729 33.3296 103.731 33.3296C100.332 33.3296 97.5667 36.095 97.5667 39.4947V81.6822C97.5667 85.985 101.067 89.4845 105.369 89.4845C108.223 89.4845 110.814 87.9402 112.182 85.487C112.489 85.5536 112.783 85.5945 113.079 85.6138C114.937 85.7321 116.746 85.1235 118.152 83.8902C119.557 82.6569 120.398 80.9501 120.52 79.0838C120.57 78.3062 120.483 77.5261 120.262 76.7555C122.691 75.0333 124.119 72.3062 124.119 69.3181C124.119 67.1517 123.339 65.0717 121.914 63.4147C123.348 61.9632 124.159 60.0214 124.159 57.9997ZM122.2 69.3194C122.2 71.5491 121.188 73.5946 119.452 74.9635C118.166 72.9181 115.887 71.6118 113.418 71.6118C112.888 71.6118 112.458 72.0419 112.458 72.5718C112.458 73.1017 112.888 73.5318 113.418 73.5318C115.556 73.5318 117.504 74.8713 118.271 76.865C118.533 77.5613 118.65 78.2659 118.604 78.9603C118.516 80.3146 117.906 81.5529 116.886 82.4477C115.866 83.343 114.556 83.7878 113.204 83.6982C112.824 83.6733 112.431 83.5914 111.967 83.441C111.494 83.2861 110.981 83.5203 110.786 83.9785C109.861 86.1571 107.734 87.5651 105.368 87.5651C102.125 87.5651 99.4861 84.9264 99.4861 81.6829V39.4954C99.4861 37.1549 101.39 35.2502 103.731 35.2502C105.905 35.2502 107.695 36.8899 107.928 39.0314C106.167 40.04 104.976 41.9338 104.976 44.104C104.976 44.6346 105.406 45.064 105.936 45.064C106.466 45.064 106.896 44.6346 106.896 44.104C106.896 41.9645 108.617 40.2224 110.746 40.1808C112.876 40.2224 114.596 41.9645 114.596 44.1034C114.596 44.5014 114.522 44.9136 114.367 45.3648C114.33 45.471 114.313 45.5824 114.315 45.6944C114.316 45.7206 114.317 45.745 114.319 45.768C114.316 45.7814 114.313 45.7904 114.313 45.7904C114.237 46.088 114.309 46.4042 114.506 46.6403C114.702 46.8765 114.995 47.0045 115.306 46.9846C115.373 46.9802 115.439 46.9718 115.557 46.9552C117.722 46.9552 119.484 48.7171 119.484 50.8822C119.484 51.2483 119.418 51.624 119.278 52.0656C119.148 52.472 119.302 52.9155 119.656 53.1536C121.214 54.2026 122.158 55.9241 122.225 57.7885C122.225 57.791 122.225 57.7936 122.225 57.7962C122.225 61.0154 119.606 63.6349 116.387 63.6349C113.167 63.6349 110.548 61.0154 110.548 57.7962C110.548 57.2656 110.118 56.8361 109.588 56.8361C109.058 56.8361 108.628 57.2656 108.628 57.7962C108.628 62.0745 112.108 65.5549 116.387 65.5549C117.812 65.5549 119.145 65.1613 120.294 64.4874C121.523 65.825 122.2 67.5357 122.2 69.3194Z" fill="white"/>
<path d="M88.4346 33.3306C85.4368 33.3306 82.937 35.4682 82.3962 38.3386C82.0838 38.2842 81.7888 38.2579 81.4957 38.2579C81.4701 38.2579 81.4451 38.2611 81.4189 38.2618C81.3933 38.2611 81.3683 38.2579 81.3421 38.2579C81.289 38.2579 81.2378 38.265 81.1872 38.2733C78.1069 38.4352 75.6486 40.9843 75.6486 44.1043C75.6486 44.4333 75.68 44.7635 75.744 45.1002C72.9286 45.5194 70.7616 47.9533 70.7616 50.8838C70.7616 51.2384 70.8006 51.5994 70.8794 51.9757C69.0701 53.4432 68.0083 55.648 68.0083 58.0006C68.0083 60.0224 68.8186 61.9642 70.2515 63.417C68.8262 65.0739 68.0461 67.1539 68.0461 69.3203C68.0461 72.3085 69.4739 75.0349 71.9034 76.7578C71.6813 77.5283 71.5949 78.3085 71.6461 79.0867C71.7677 80.9523 72.608 82.6592 74.0134 83.8925C75.4189 85.1264 77.223 85.735 79.0861 85.616C79.3773 85.5968 79.6742 85.5546 79.9821 85.4886C81.3504 87.9424 83.9411 89.4867 86.7955 89.4867C91.0976 89.4867 94.5978 85.9866 94.5978 81.6845V39.4957C94.599 36.096 91.8336 33.3306 88.4346 33.3306ZM92.679 81.6832C92.679 84.9267 90.0403 87.5654 86.7968 87.5654C84.4307 87.5654 82.304 86.1574 81.3798 83.9789C81.2256 83.616 80.8723 83.3939 80.496 83.3939C80.3974 83.3939 80.297 83.4086 80.1984 83.4413C79.735 83.5917 79.3421 83.6736 78.9613 83.6986C77.6051 83.7875 76.3002 83.3427 75.2806 82.448C74.2605 81.5533 73.6506 80.3149 73.5622 78.9606C73.5136 78.2183 73.6422 77.4656 73.945 76.7238C73.9494 76.713 73.9482 76.7008 73.952 76.6899C74.8109 74.7341 76.656 73.52 78.8141 73.52C79.3446 73.52 79.7741 73.0899 79.7741 72.56C79.7741 72.0301 79.3446 71.6 78.8141 71.6C76.2938 71.6 74.0134 72.8845 72.7034 74.953C70.9747 73.584 69.9661 71.5437 69.9661 69.3197C69.9661 67.536 70.6445 65.8253 71.872 64.4883C73.0214 65.1622 74.3546 65.5558 75.7805 65.5558C80.0589 65.5558 83.5392 62.0755 83.5392 57.7971C83.5392 57.2666 83.1098 56.8371 82.5792 56.8371C82.0486 56.8371 81.6192 57.2666 81.6192 57.7971C81.6192 61.0163 79.0003 63.6358 75.7805 63.6358C72.5606 63.6358 69.9418 61.0163 69.9418 57.7971C69.9418 57.7958 69.9411 57.7946 69.9411 57.7933C70.007 55.9277 70.951 54.2048 72.5094 53.1546C72.8634 52.9165 73.017 52.4736 72.8877 52.0672C72.7469 51.625 72.6816 51.2493 72.6816 50.8832C72.6816 48.7226 74.4358 46.9632 76.6464 46.9632C76.6509 46.9632 76.656 46.9632 76.6605 46.9632C76.7264 46.9722 76.7923 46.9805 76.8595 46.985C77.1699 47.0042 77.4662 46.8755 77.6621 46.6381C77.8586 46.4 77.929 46.0826 77.8502 45.7843C77.8502 45.7837 77.8483 45.7754 77.8451 45.7645C77.847 45.7421 77.849 45.7216 77.8496 45.7037C77.8528 45.5885 77.8355 45.4739 77.7978 45.3651C77.6429 44.9126 77.568 44.4998 77.568 44.103C77.568 41.9642 79.2883 40.2214 81.4182 40.1805C83.5482 40.2221 85.2685 41.9642 85.2685 44.1037C85.2685 44.6342 85.6979 45.0637 86.2285 45.0637C86.759 45.0637 87.1885 44.6342 87.1885 44.1037C87.1885 41.9334 85.9974 40.0397 84.2368 39.031C84.4698 36.8896 86.2592 35.2499 88.4339 35.2499C90.7744 35.2499 92.6784 37.1546 92.6784 39.495V81.6832H92.679Z" fill="white"/>
<path d="M47.8683 174.336C48.7163 174.336 49.3163 174.192 49.6683 173.904C50.0363 173.6 50.2203 173.24 50.2203 172.824C50.2203 172.44 50.0763 172.136 49.7883 171.912C49.5163 171.672 49.1003 171.464 48.5403 171.288L47.3163 170.904C46.6443 170.696 46.0363 170.472 45.4923 170.232C44.9483 169.976 44.4843 169.68 44.1003 169.344C43.7163 168.992 43.4123 168.584 43.1883 168.12C42.9803 167.64 42.8763 167.064 42.8763 166.392C42.8763 165.048 43.3803 163.984 44.3883 163.2C45.4123 162.416 46.8283 162.024 48.6363 162.024C49.3243 162.024 49.9563 162.072 50.5323 162.168C51.1243 162.264 51.6283 162.416 52.0443 162.624C52.4603 162.816 52.7883 163.056 53.0283 163.344C53.2683 163.632 53.3883 163.968 53.3883 164.352C53.3883 164.72 53.2923 165.048 53.1003 165.336C52.9243 165.608 52.7163 165.84 52.4763 166.032C52.1083 165.776 51.6203 165.56 51.0123 165.384C50.4043 165.208 49.7403 165.12 49.0203 165.12C48.2523 165.12 47.6843 165.24 47.3163 165.48C46.9483 165.72 46.7643 166.024 46.7643 166.392C46.7643 166.712 46.8843 166.96 47.1243 167.136C47.3643 167.296 47.7403 167.464 48.2523 167.64L49.5483 168.072C50.3003 168.328 50.9563 168.608 51.5163 168.912C52.0923 169.2 52.5723 169.536 52.9563 169.92C53.3403 170.288 53.6283 170.72 53.8203 171.216C54.0123 171.696 54.1083 172.248 54.1083 172.872C54.1083 173.544 53.9723 174.16 53.7003 174.72C53.4443 175.264 53.0523 175.736 52.5243 176.136C52.0123 176.536 51.3723 176.848 50.6043 177.072C49.8523 177.296 48.9803 177.408 47.9883 177.408C47.2523 177.408 46.5723 177.344 45.9483 177.216C45.3243 177.104 44.7803 176.936 44.3163 176.712C43.8683 176.488 43.5083 176.216 43.2363 175.896C42.9803 175.56 42.8523 175.184 42.8523 174.768C42.8523 174.336 42.9723 173.976 43.2123 173.688C43.4683 173.4 43.7483 173.168 44.0523 172.992C44.4843 173.344 45.0203 173.656 45.6603 173.928C46.3163 174.2 47.0523 174.336 47.8683 174.336ZM68.0488 171.216C68.0488 172.16 67.9048 173.016 67.6168 173.784C67.3288 174.536 66.9128 175.176 66.3688 175.704C65.8408 176.232 65.2008 176.64 64.4488 176.928C63.6968 177.216 62.8568 177.36 61.9288 177.36C61.0008 177.36 60.1528 177.224 59.3848 176.952C58.6328 176.664 57.9848 176.256 57.4408 175.728C56.9128 175.2 56.5048 174.56 56.2168 173.808C55.9288 173.04 55.7848 172.176 55.7848 171.216C55.7848 170.288 55.9288 169.448 56.2168 168.696C56.5208 167.928 56.9368 167.28 57.4648 166.752C58.0088 166.224 58.6568 165.816 59.4088 165.528C60.1768 165.24 61.0168 165.096 61.9288 165.096C62.8408 165.096 63.6728 165.24 64.4248 165.528C65.1768 165.816 65.8168 166.232 66.3448 166.776C66.8888 167.304 67.3048 167.944 67.5928 168.696C67.8968 169.448 68.0488 170.288 68.0488 171.216ZM61.9288 167.976C61.1768 167.976 60.5928 168.256 60.1768 168.816C59.7608 169.376 59.5528 170.176 59.5528 171.216C59.5528 172.288 59.7528 173.104 60.1528 173.664C60.5688 174.208 61.1608 174.48 61.9288 174.48C62.6968 174.48 63.2808 174.2 63.6808 173.64C64.0968 173.08 64.3048 172.272 64.3048 171.216C64.3048 170.192 64.0968 169.4 63.6808 168.84C63.2648 168.264 62.6808 167.976 61.9288 167.976ZM81.3706 174.6C81.3706 175.352 81.0426 175.928 80.3866 176.328C79.8746 176.648 79.2426 176.896 78.4906 177.072C77.7386 177.264 76.9066 177.36 75.9946 177.36C75.1306 177.36 74.3466 177.264 73.6426 177.072C72.9386 176.896 72.3306 176.608 71.8186 176.208C71.3226 175.808 70.9306 175.304 70.6426 174.696C70.3706 174.088 70.2346 173.352 70.2346 172.488V165.504C70.4106 165.456 70.6426 165.408 70.9306 165.36C71.2186 165.312 71.5386 165.288 71.8906 165.288C72.6106 165.288 73.1226 165.408 73.4266 165.648C73.7466 165.888 73.9066 166.344 73.9066 167.016V172.464C73.9066 173.184 74.0906 173.704 74.4586 174.024C74.8266 174.328 75.3466 174.48 76.0186 174.48C76.4346 174.48 76.7786 174.448 77.0506 174.384C77.3386 174.304 77.5546 174.224 77.6986 174.144V165.504C77.8586 165.456 78.0826 165.408 78.3706 165.36C78.6586 165.312 78.9786 165.288 79.3306 165.288C80.0506 165.288 80.5706 165.408 80.8906 165.648C81.2106 165.888 81.3706 166.344 81.3706 167.016V174.6ZM86.2228 177.168C85.5028 177.168 84.9828 177.056 84.6628 176.832C84.3588 176.592 84.2068 176.136 84.2068 175.464V161.376C84.3668 161.328 84.5908 161.28 84.8788 161.232C85.1828 161.184 85.5108 161.16 85.8628 161.16C86.5668 161.16 87.0788 161.28 87.3988 161.52C87.7188 161.76 87.8788 162.216 87.8788 162.888V176.976C87.7028 177.024 87.4708 177.064 87.1828 177.096C86.8948 177.144 86.5748 177.168 86.2228 177.168ZM101.855 174.6C101.855 175.352 101.527 175.928 100.871 176.328C100.359 176.648 99.727 176.896 98.975 177.072C98.223 177.264 97.391 177.36 96.479 177.36C95.615 177.36 94.831 177.264 94.127 177.072C93.423 176.896 92.815 176.608 92.303 176.208C91.807 175.808 91.415 175.304 91.127 174.696C90.855 174.088 90.719 173.352 90.719 172.488V165.504C90.895 165.456 91.127 165.408 91.415 165.36C91.703 165.312 92.023 165.288 92.375 165.288C93.095 165.288 93.607 165.408 93.911 165.648C94.231 165.888 94.391 166.344 94.391 167.016V172.464C94.391 173.184 94.575 173.704 94.943 174.024C95.311 174.328 95.831 174.48 96.503 174.48C96.919 174.48 97.263 174.448 97.535 174.384C97.823 174.304 98.039 174.224 98.183 174.144V165.504C98.343 165.456 98.567 165.408 98.855 165.36C99.143 165.312 99.463 165.288 99.815 165.288C100.535 165.288 101.055 165.408 101.375 165.648C101.695 165.888 101.855 166.344 101.855 167.016V174.6ZM110.859 168C109.995 168 109.259 168.28 108.651 168.84C108.043 169.384 107.739 170.192 107.739 171.264C107.739 172.336 108.027 173.136 108.603 173.664C109.195 174.192 109.939 174.456 110.835 174.456C111.347 174.456 111.795 174.392 112.179 174.264C112.579 174.12 112.915 173.976 113.187 173.832C113.459 174.04 113.667 174.264 113.811 174.504C113.971 174.728 114.051 175.008 114.051 175.344C114.051 175.952 113.731 176.44 113.091 176.808C112.451 177.176 111.563 177.36 110.427 177.36C109.467 177.36 108.587 177.232 107.787 176.976C107.003 176.72 106.331 176.336 105.771 175.824C105.211 175.312 104.779 174.68 104.475 173.928C104.171 173.16 104.019 172.272 104.019 171.264C104.019 170.224 104.187 169.32 104.523 168.552C104.859 167.784 105.315 167.144 105.891 166.632C106.467 166.12 107.139 165.736 107.907 165.48C108.675 165.224 109.483 165.096 110.331 165.096C111.435 165.096 112.299 165.296 112.923 165.696C113.563 166.096 113.883 166.6 113.883 167.208C113.883 167.496 113.811 167.76 113.667 168C113.539 168.24 113.379 168.448 113.187 168.624C112.899 168.464 112.555 168.32 112.155 168.192C111.771 168.064 111.339 168 110.859 168ZM120.01 176.976C119.85 177.024 119.626 177.064 119.338 177.096C119.05 177.144 118.73 177.168 118.378 177.168C117.658 177.168 117.138 177.056 116.818 176.832C116.514 176.592 116.362 176.136 116.362 175.464V165.6C116.522 165.552 116.746 165.504 117.034 165.456C117.322 165.408 117.642 165.384 117.994 165.384C118.714 165.384 119.226 165.504 119.53 165.744C119.85 165.984 120.01 166.44 120.01 167.112V176.976ZM116.146 162.144C116.146 161.6 116.33 161.136 116.698 160.752C117.082 160.368 117.578 160.176 118.186 160.176C118.794 160.176 119.282 160.368 119.65 160.752C120.034 161.136 120.226 161.6 120.226 162.144C120.226 162.704 120.034 163.176 119.65 163.56C119.282 163.944 118.794 164.136 118.186 164.136C117.578 164.136 117.082 163.944 116.698 163.56C116.33 163.176 116.146 162.704 116.146 162.144ZM127.628 174.672C127.98 174.672 128.324 174.64 128.66 174.576C129.012 174.496 129.276 174.4 129.452 174.288V172.08L127.484 172.248C126.972 172.296 126.556 172.416 126.236 172.608C125.932 172.784 125.78 173.056 125.78 173.424C125.78 173.808 125.924 174.112 126.212 174.336C126.5 174.56 126.972 174.672 127.628 174.672ZM127.484 165.096C128.316 165.096 129.068 165.184 129.74 165.36C130.428 165.52 131.012 165.776 131.492 166.128C131.972 166.48 132.34 166.928 132.596 167.472C132.868 168.016 133.004 168.656 133.004 169.392V174.816C133.004 175.232 132.892 175.568 132.668 175.824C132.46 176.064 132.204 176.272 131.9 176.448C131.404 176.752 130.796 176.984 130.076 177.144C129.356 177.304 128.54 177.384 127.628 177.384C125.98 177.384 124.668 177.072 123.692 176.448C122.716 175.808 122.228 174.84 122.228 173.544C122.228 172.44 122.556 171.6 123.212 171.024C123.868 170.448 124.876 170.088 126.236 169.944L129.428 169.608V169.344C129.428 168.832 129.22 168.456 128.804 168.216C128.388 167.976 127.788 167.856 127.004 167.856C126.396 167.856 125.796 167.928 125.204 168.072C124.628 168.216 124.108 168.384 123.644 168.576C123.452 168.448 123.284 168.256 123.14 168C123.012 167.728 122.948 167.44 122.948 167.136C122.948 166.432 123.316 165.928 124.052 165.624C124.516 165.448 125.052 165.32 125.66 165.24C126.284 165.144 126.892 165.096 127.484 165.096ZM143.136 169.632C143.136 169.072 142.968 168.656 142.632 168.384C142.296 168.112 141.848 167.976 141.288 167.976C140.904 167.976 140.552 168.024 140.232 168.12C139.912 168.216 139.616 168.336 139.344 168.48V176.976C139.184 177.024 138.96 177.064 138.672 177.096C138.384 177.144 138.064 177.168 137.712 177.168C136.992 177.168 136.472 177.056 136.152 176.832C135.832 176.592 135.672 176.136 135.672 175.464V168.048C135.672 167.632 135.76 167.296 135.936 167.04C136.112 166.784 136.36 166.544 136.68 166.32C137.192 165.952 137.848 165.656 138.648 165.432C139.464 165.208 140.36 165.096 141.336 165.096C143.08 165.096 144.424 165.48 145.368 166.248C146.328 167.016 146.808 168.112 146.808 169.536V176.976C146.632 177.024 146.4 177.064 146.112 177.096C145.824 177.144 145.504 177.168 145.152 177.168C144.432 177.168 143.912 177.056 143.592 176.832C143.288 176.592 143.136 176.136 143.136 175.464V169.632Z" fill="#0085FF"/>
</svg>
