<svg width="180" height="175" viewBox="0 0 180 175" fill="none" xmlns="http://www.w3.org/2000/svg">
<circle cx="91" cy="48" r="48" fill="white"/>
<path d="M74.5 107C63.4421 100.77 74.5 93 58 83H124C107 93 118.12 100.881 107 107C95.8803 113.119 85.5579 113.23 74.5 107Z" fill="white"/>
<path d="M112 118V109.5C112 109.5 103 116.5 91 116.5C79 116.5 70 109.5 70 109.5V118C70 118 79.5 124.5 91 124.5C102.5 124.5 112 118 112 118Z" fill="white"/>
<path d="M119.159 44.9997C119.159 42.647 118.097 40.4422 116.288 38.9747C116.366 38.599 116.405 38.2381 116.405 37.8829C116.405 34.9523 114.238 32.5184 111.423 32.0992C111.488 31.7626 111.518 31.4323 111.518 31.1034C111.518 27.9834 109.06 25.4342 105.979 25.2723C105.929 25.264 105.877 25.2569 105.824 25.2569C105.799 25.2569 105.774 25.2601 105.748 25.2608C105.722 25.2601 105.697 25.2569 105.671 25.2569C105.378 25.2569 105.083 25.2832 104.771 25.3376C104.229 22.4672 101.729 20.3296 98.7312 20.3296C95.3322 20.3296 92.5667 23.095 92.5667 26.4947V68.6822C92.5667 72.985 96.0669 76.4845 100.369 76.4845C103.223 76.4845 105.814 74.9402 107.182 72.487C107.489 72.5536 107.783 72.5945 108.079 72.6138C109.937 72.7321 111.746 72.1235 113.152 70.8902C114.557 69.6569 115.398 67.9501 115.52 66.0838C115.57 65.3062 115.483 64.5261 115.262 63.7555C117.691 62.0333 119.119 59.3062 119.119 56.3181C119.119 54.1517 118.339 52.0717 116.914 50.4147C118.348 48.9632 119.159 47.0214 119.159 44.9997ZM117.2 56.3194C117.2 58.5491 116.188 60.5946 114.452 61.9635C113.166 59.9181 110.887 58.6118 108.418 58.6118C107.888 58.6118 107.458 59.0419 107.458 59.5718C107.458 60.1017 107.888 60.5318 108.418 60.5318C110.556 60.5318 112.504 61.8713 113.271 63.865C113.533 64.5613 113.65 65.2659 113.604 65.9603C113.516 67.3146 112.906 68.5529 111.886 69.4477C110.866 70.343 109.556 70.7878 108.204 70.6982C107.824 70.6733 107.431 70.5914 106.967 70.441C106.494 70.2861 105.981 70.5203 105.786 70.9785C104.861 73.1571 102.734 74.5651 100.368 74.5651C97.1248 74.5651 94.4861 71.9264 94.4861 68.6829V26.4954C94.4861 24.1549 96.3901 22.2502 98.7306 22.2502C100.905 22.2502 102.695 23.8899 102.928 26.0314C101.167 27.04 99.976 28.9338 99.976 31.104C99.976 31.6346 100.406 32.064 100.936 32.064C101.466 32.064 101.896 31.6346 101.896 31.104C101.896 28.9645 103.617 27.2224 105.746 27.1808C107.876 27.2224 109.596 28.9645 109.596 31.1034C109.596 31.5014 109.522 31.9136 109.367 32.3648C109.33 32.471 109.313 32.5824 109.315 32.6944C109.316 32.7206 109.317 32.745 109.319 32.768C109.316 32.7814 109.313 32.7904 109.313 32.7904C109.237 33.088 109.309 33.4042 109.506 33.6403C109.702 33.8765 109.995 34.0045 110.306 33.9846C110.373 33.9802 110.439 33.9718 110.557 33.9552C112.722 33.9552 114.484 35.7171 114.484 37.8822C114.484 38.2483 114.418 38.624 114.278 39.0656C114.148 39.472 114.302 39.9155 114.656 40.1536C116.214 41.2026 117.158 42.9241 117.225 44.7885C117.225 44.791 117.225 44.7936 117.225 44.7962C117.225 48.0154 114.606 50.6349 111.387 50.6349C108.167 50.6349 105.548 48.0154 105.548 44.7962C105.548 44.2656 105.118 43.8361 104.588 43.8361C104.058 43.8361 103.628 44.2656 103.628 44.7962C103.628 49.0745 107.108 52.5549 111.387 52.5549C112.812 52.5549 114.145 52.1613 115.294 51.4874C116.523 52.825 117.2 54.5357 117.2 56.3194Z" fill="#0085FF"/>
<path d="M83.4346 20.3306C80.4368 20.3306 77.937 22.4682 77.3962 25.3386C77.0838 25.2842 76.7888 25.2579 76.4957 25.2579C76.4701 25.2579 76.4451 25.2611 76.4189 25.2618C76.3933 25.2611 76.3683 25.2579 76.3421 25.2579C76.289 25.2579 76.2378 25.265 76.1872 25.2733C73.1069 25.4352 70.6486 27.9843 70.6486 31.1043C70.6486 31.4333 70.68 31.7635 70.744 32.1002C67.9286 32.5194 65.7616 34.9533 65.7616 37.8838C65.7616 38.2384 65.8006 38.5994 65.8794 38.9757C64.0701 40.4432 63.0083 42.648 63.0083 45.0006C63.0083 47.0224 63.8186 48.9642 65.2515 50.417C63.8262 52.0739 63.0461 54.1539 63.0461 56.3203C63.0461 59.3085 64.4739 62.0349 66.9034 63.7578C66.6813 64.5283 66.5949 65.3085 66.6461 66.0867C66.7677 67.9523 67.608 69.6592 69.0134 70.8925C70.4189 72.1264 72.223 72.735 74.0861 72.616C74.3773 72.5968 74.6742 72.5546 74.9821 72.4886C76.3504 74.9424 78.9411 76.4867 81.7955 76.4867C86.0976 76.4867 89.5978 72.9866 89.5978 68.6845V26.4957C89.599 23.096 86.8336 20.3306 83.4346 20.3306ZM87.679 68.6832C87.679 71.9267 85.0403 74.5654 81.7968 74.5654C79.4307 74.5654 77.304 73.1574 76.3798 70.9789C76.2256 70.616 75.8723 70.3939 75.496 70.3939C75.3974 70.3939 75.297 70.4086 75.1984 70.4413C74.735 70.5917 74.3421 70.6736 73.9613 70.6986C72.6051 70.7875 71.3002 70.3427 70.2806 69.448C69.2605 68.5533 68.6506 67.3149 68.5622 65.9606C68.5136 65.2183 68.6422 64.4656 68.945 63.7238C68.9494 63.713 68.9482 63.7008 68.952 63.6899C69.8109 61.7341 71.656 60.52 73.8141 60.52C74.3446 60.52 74.7741 60.0899 74.7741 59.56C74.7741 59.0301 74.3446 58.6 73.8141 58.6C71.2938 58.6 69.0134 59.8845 67.7034 61.953C65.9747 60.584 64.9661 58.5437 64.9661 56.3197C64.9661 54.536 65.6445 52.8253 66.872 51.4883C68.0214 52.1622 69.3546 52.5558 70.7805 52.5558C75.0589 52.5558 78.5392 49.0755 78.5392 44.7971C78.5392 44.2666 78.1098 43.8371 77.5792 43.8371C77.0486 43.8371 76.6192 44.2666 76.6192 44.7971C76.6192 48.0163 74.0003 50.6358 70.7805 50.6358C67.5606 50.6358 64.9418 48.0163 64.9418 44.7971C64.9418 44.7958 64.9411 44.7946 64.9411 44.7933C65.007 42.9277 65.951 41.2048 67.5094 40.1546C67.8634 39.9165 68.017 39.4736 67.8877 39.0672C67.7469 38.625 67.6816 38.2493 67.6816 37.8832C67.6816 35.7226 69.4358 33.9632 71.6464 33.9632C71.6509 33.9632 71.656 33.9632 71.6605 33.9632C71.7264 33.9722 71.7923 33.9805 71.8595 33.985C72.1699 34.0042 72.4662 33.8755 72.6621 33.6381C72.8586 33.4 72.929 33.0826 72.8502 32.7843C72.8502 32.7837 72.8483 32.7754 72.8451 32.7645C72.847 32.7421 72.849 32.7216 72.8496 32.7037C72.8528 32.5885 72.8355 32.4739 72.7978 32.3651C72.6429 31.9126 72.568 31.4998 72.568 31.103C72.568 28.9642 74.2883 27.2214 76.4182 27.1805C78.5482 27.2221 80.2685 28.9642 80.2685 31.1037C80.2685 31.6342 80.6979 32.0637 81.2285 32.0637C81.759 32.0637 82.1885 31.6342 82.1885 31.1037C82.1885 28.9334 80.9974 27.0397 79.2368 26.031C79.4698 23.8896 81.2592 22.2499 83.4339 22.2499C85.7744 22.2499 87.6784 24.1546 87.6784 26.495V68.6832H87.679Z" fill="#0085FF"/>
<path d="M43.4777 160.336C44.3257 160.336 44.9257 160.192 45.2777 159.904C45.6457 159.6 45.8297 159.24 45.8297 158.824C45.8297 158.44 45.6857 158.136 45.3977 157.912C45.1257 157.672 44.7097 157.464 44.1497 157.288L42.9257 156.904C42.2537 156.696 41.6457 156.472 41.1017 156.232C40.5577 155.976 40.0937 155.68 39.7097 155.344C39.3257 154.992 39.0217 154.584 38.7977 154.12C38.5897 153.64 38.4857 153.064 38.4857 152.392C38.4857 151.048 38.9897 149.984 39.9977 149.2C41.0217 148.416 42.4377 148.024 44.2457 148.024C44.9337 148.024 45.5657 148.072 46.1417 148.168C46.7337 148.264 47.2377 148.416 47.6537 148.624C48.0697 148.816 48.3977 149.056 48.6377 149.344C48.8777 149.632 48.9977 149.968 48.9977 150.352C48.9977 150.72 48.9017 151.048 48.7097 151.336C48.5337 151.608 48.3257 151.84 48.0857 152.032C47.7177 151.776 47.2297 151.56 46.6217 151.384C46.0137 151.208 45.3497 151.12 44.6297 151.12C43.8617 151.12 43.2937 151.24 42.9257 151.48C42.5577 151.72 42.3737 152.024 42.3737 152.392C42.3737 152.712 42.4937 152.96 42.7337 153.136C42.9737 153.296 43.3497 153.464 43.8617 153.64L45.1577 154.072C45.9097 154.328 46.5657 154.608 47.1257 154.912C47.7017 155.2 48.1817 155.536 48.5657 155.92C48.9497 156.288 49.2377 156.72 49.4297 157.216C49.6217 157.696 49.7177 158.248 49.7177 158.872C49.7177 159.544 49.5817 160.16 49.3097 160.72C49.0537 161.264 48.6617 161.736 48.1337 162.136C47.6217 162.536 46.9817 162.848 46.2137 163.072C45.4617 163.296 44.5897 163.408 43.5977 163.408C42.8617 163.408 42.1817 163.344 41.5577 163.216C40.9337 163.104 40.3897 162.936 39.9257 162.712C39.4777 162.488 39.1177 162.216 38.8457 161.896C38.5897 161.56 38.4617 161.184 38.4617 160.768C38.4617 160.336 38.5817 159.976 38.8217 159.688C39.0777 159.4 39.3577 159.168 39.6617 158.992C40.0937 159.344 40.6297 159.656 41.2697 159.928C41.9257 160.2 42.6617 160.336 43.4777 160.336ZM63.6581 157.216C63.6581 158.16 63.5141 159.016 63.2261 159.784C62.9381 160.536 62.5221 161.176 61.9781 161.704C61.4501 162.232 60.8101 162.64 60.0581 162.928C59.3061 163.216 58.4661 163.36 57.5381 163.36C56.6101 163.36 55.7621 163.224 54.9941 162.952C54.2421 162.664 53.5941 162.256 53.0501 161.728C52.5221 161.2 52.1141 160.56 51.8261 159.808C51.5381 159.04 51.3941 158.176 51.3941 157.216C51.3941 156.288 51.5381 155.448 51.8261 154.696C52.1301 153.928 52.5461 153.28 53.0741 152.752C53.6181 152.224 54.2661 151.816 55.0181 151.528C55.7861 151.24 56.6261 151.096 57.5381 151.096C58.4501 151.096 59.2821 151.24 60.0341 151.528C60.7861 151.816 61.4261 152.232 61.9541 152.776C62.4981 153.304 62.9141 153.944 63.2021 154.696C63.5061 155.448 63.6581 156.288 63.6581 157.216ZM57.5381 153.976C56.7861 153.976 56.2021 154.256 55.7861 154.816C55.3701 155.376 55.1621 156.176 55.1621 157.216C55.1621 158.288 55.3621 159.104 55.7621 159.664C56.1781 160.208 56.7701 160.48 57.5381 160.48C58.3061 160.48 58.8901 160.2 59.2901 159.64C59.7061 159.08 59.9141 158.272 59.9141 157.216C59.9141 156.192 59.7061 155.4 59.2901 154.84C58.8741 154.264 58.2901 153.976 57.5381 153.976ZM76.98 160.6C76.98 161.352 76.652 161.928 75.996 162.328C75.484 162.648 74.852 162.896 74.1 163.072C73.348 163.264 72.516 163.36 71.604 163.36C70.74 163.36 69.956 163.264 69.252 163.072C68.548 162.896 67.94 162.608 67.428 162.208C66.932 161.808 66.54 161.304 66.252 160.696C65.98 160.088 65.844 159.352 65.844 158.488V151.504C66.02 151.456 66.252 151.408 66.54 151.36C66.828 151.312 67.148 151.288 67.5 151.288C68.22 151.288 68.732 151.408 69.036 151.648C69.356 151.888 69.516 152.344 69.516 153.016V158.464C69.516 159.184 69.7 159.704 70.068 160.024C70.436 160.328 70.956 160.48 71.628 160.48C72.044 160.48 72.388 160.448 72.66 160.384C72.948 160.304 73.164 160.224 73.308 160.144V151.504C73.468 151.456 73.692 151.408 73.98 151.36C74.268 151.312 74.588 151.288 74.94 151.288C75.66 151.288 76.18 151.408 76.5 151.648C76.82 151.888 76.98 152.344 76.98 153.016V160.6ZM81.8321 163.168C81.1121 163.168 80.5921 163.056 80.2721 162.832C79.9681 162.592 79.8161 162.136 79.8161 161.464V147.376C79.9761 147.328 80.2001 147.28 80.4881 147.232C80.7921 147.184 81.1201 147.16 81.4721 147.16C82.1761 147.16 82.6881 147.28 83.0081 147.52C83.3281 147.76 83.4881 148.216 83.4881 148.888V162.976C83.3121 163.024 83.0801 163.064 82.7921 163.096C82.5041 163.144 82.1841 163.168 81.8321 163.168ZM97.4644 160.6C97.4644 161.352 97.1364 161.928 96.4804 162.328C95.9684 162.648 95.3364 162.896 94.5844 163.072C93.8324 163.264 93.0004 163.36 92.0884 163.36C91.2244 163.36 90.4404 163.264 89.7364 163.072C89.0324 162.896 88.4244 162.608 87.9124 162.208C87.4164 161.808 87.0244 161.304 86.7364 160.696C86.4644 160.088 86.3284 159.352 86.3284 158.488V151.504C86.5044 151.456 86.7364 151.408 87.0244 151.36C87.3124 151.312 87.6324 151.288 87.9844 151.288C88.7044 151.288 89.2164 151.408 89.5204 151.648C89.8404 151.888 90.0004 152.344 90.0004 153.016V158.464C90.0004 159.184 90.1844 159.704 90.5524 160.024C90.9204 160.328 91.4404 160.48 92.1124 160.48C92.5284 160.48 92.8724 160.448 93.1444 160.384C93.4324 160.304 93.6484 160.224 93.7924 160.144V151.504C93.9524 151.456 94.1764 151.408 94.4644 151.36C94.7524 151.312 95.0724 151.288 95.4244 151.288C96.1444 151.288 96.6644 151.408 96.9844 151.648C97.3044 151.888 97.4644 152.344 97.4644 153.016V160.6ZM103.829 159.184C103.829 159.632 103.973 159.96 104.261 160.168C104.549 160.36 104.949 160.456 105.461 160.456C105.701 160.456 105.957 160.432 106.229 160.384C106.501 160.32 106.733 160.248 106.925 160.168C107.069 160.328 107.189 160.512 107.285 160.72C107.381 160.928 107.429 161.168 107.429 161.44C107.429 162 107.205 162.464 106.757 162.832C106.325 163.184 105.565 163.36 104.477 163.36C103.133 163.36 102.085 163.056 101.333 162.448C100.581 161.824 100.205 160.816 100.205 159.424V148.648C100.381 148.6 100.613 148.552 100.901 148.504C101.189 148.44 101.501 148.408 101.837 148.408C102.541 148.408 103.045 148.536 103.349 148.792C103.669 149.032 103.829 149.48 103.829 150.136V151.696H107.141C107.221 151.856 107.301 152.064 107.381 152.32C107.461 152.56 107.501 152.816 107.501 153.088C107.501 153.6 107.381 153.968 107.141 154.192C106.917 154.416 106.621 154.528 106.253 154.528H103.829V159.184ZM113.323 162.976C113.163 163.024 112.939 163.064 112.651 163.096C112.363 163.144 112.043 163.168 111.691 163.168C110.971 163.168 110.451 163.056 110.131 162.832C109.827 162.592 109.675 162.136 109.675 161.464V151.6C109.835 151.552 110.059 151.504 110.347 151.456C110.635 151.408 110.955 151.384 111.307 151.384C112.027 151.384 112.539 151.504 112.843 151.744C113.163 151.984 113.323 152.44 113.323 153.112V162.976ZM109.459 148.144C109.459 147.6 109.643 147.136 110.011 146.752C110.395 146.368 110.891 146.176 111.499 146.176C112.107 146.176 112.595 146.368 112.963 146.752C113.347 147.136 113.539 147.6 113.539 148.144C113.539 148.704 113.347 149.176 112.963 149.56C112.595 149.944 112.107 150.136 111.499 150.136C110.891 150.136 110.395 149.944 110.011 149.56C109.643 149.176 109.459 148.704 109.459 148.144ZM127.877 157.216C127.877 158.16 127.733 159.016 127.445 159.784C127.157 160.536 126.741 161.176 126.197 161.704C125.669 162.232 125.029 162.64 124.277 162.928C123.525 163.216 122.685 163.36 121.757 163.36C120.829 163.36 119.981 163.224 119.213 162.952C118.461 162.664 117.813 162.256 117.269 161.728C116.741 161.2 116.333 160.56 116.045 159.808C115.757 159.04 115.613 158.176 115.613 157.216C115.613 156.288 115.757 155.448 116.045 154.696C116.349 153.928 116.765 153.28 117.293 152.752C117.837 152.224 118.485 151.816 119.237 151.528C120.005 151.24 120.845 151.096 121.757 151.096C122.669 151.096 123.501 151.24 124.253 151.528C125.005 151.816 125.645 152.232 126.173 152.776C126.717 153.304 127.133 153.944 127.421 154.696C127.725 155.448 127.877 156.288 127.877 157.216ZM121.757 153.976C121.005 153.976 120.421 154.256 120.005 154.816C119.589 155.376 119.381 156.176 119.381 157.216C119.381 158.288 119.581 159.104 119.981 159.664C120.397 160.208 120.989 160.48 121.757 160.48C122.525 160.48 123.109 160.2 123.509 159.64C123.925 159.08 124.133 158.272 124.133 157.216C124.133 156.192 123.925 155.4 123.509 154.84C123.093 154.264 122.509 153.976 121.757 153.976ZM137.527 155.632C137.527 155.072 137.359 154.656 137.023 154.384C136.687 154.112 136.239 153.976 135.679 153.976C135.295 153.976 134.943 154.024 134.623 154.12C134.303 154.216 134.007 154.336 133.735 154.48V162.976C133.575 163.024 133.351 163.064 133.063 163.096C132.775 163.144 132.455 163.168 132.103 163.168C131.383 163.168 130.863 163.056 130.543 162.832C130.223 162.592 130.063 162.136 130.063 161.464V154.048C130.063 153.632 130.151 153.296 130.327 153.04C130.503 152.784 130.751 152.544 131.071 152.32C131.583 151.952 132.239 151.656 133.039 151.432C133.855 151.208 134.751 151.096 135.727 151.096C137.471 151.096 138.815 151.48 139.759 152.248C140.719 153.016 141.199 154.112 141.199 155.536V162.976C141.023 163.024 140.791 163.064 140.503 163.096C140.215 163.144 139.895 163.168 139.543 163.168C138.823 163.168 138.303 163.056 137.983 162.832C137.679 162.592 137.527 162.136 137.527 161.464V155.632Z" fill="white"/>
</svg>
